<svg xmlns="http://www.w3.org/2000/svg" id="Capa_1" height="512" viewBox="0 0 512 512" width="512"><g><path d="m211.266 222.027c2.649.022 5.131 1.074 6.989 2.963 1.857 1.889 2.868 4.388 2.846 7.037l15 .125c.055-6.656-2.484-12.935-7.152-17.68-2.869-2.917-6.332-5.036-10.12-6.252v-16.193h-15v16.101c-3.767 1.159-7.227 3.209-10.117 6.052-4.745 4.667-7.389 10.903-7.443 17.559-.055 6.655 2.485 12.934 7.153 17.679 4.667 4.745 10.903 7.389 17.558 7.443 2.649.022 5.131 1.074 6.989 2.963 1.857 1.889 2.868 4.388 2.846 7.038-.021 2.648-1.073 5.13-2.962 6.987-1.868 1.837-4.334 2.846-6.951 2.846-.029 0-.058 0-.086 0-5.468-.045-9.88-4.531-9.835-9.999l-15-.123c-.055 6.655 2.486 12.934 7.153 17.679 3.013 3.063 6.683 5.245 10.695 6.425v16.018h15v-16.289c3.543-1.186 6.799-3.166 9.541-5.863 4.746-4.667 7.39-10.903 7.444-17.558.055-6.656-2.484-12.935-7.152-17.68-4.667-4.745-10.902-7.389-17.559-7.444-2.648-.022-5.131-1.074-6.988-2.963s-2.869-4.388-2.847-7.037c.021-2.649 1.073-5.131 2.962-6.989 1.888-1.855 4.387-2.839 7.036-2.845z"></path><path d="m283.285 124.362h61.1v15h-61.1z"></path><path d="m86.872 359.362h257.513v15h-257.513z"></path><path d="m19.372 139.362h248.912v-15h-203.912v-29.995l280.008.19.01-15-295.018-.2v45.005h-45v250h67.499v-15h-52.499z"></path><path d="m344.385 154.362h-275.619l-34.394 34.393v121.213l34.394 34.393h275.619v-15h-81.971c9.413-6.07 17.812-13.867 24.783-23.202l-12.018-8.976c-15.272 20.449-38.65 32.177-64.139 32.177-44.111 0-79.999-35.888-79.999-80s35.888-80 79.999-80c44.112 0 80 35.888 80 80 0 12.735-2.904 24.908-8.632 36.181l13.373 6.795c6.807-13.398 10.259-27.857 10.259-42.976 0-33.55-17.481-63.093-43.814-80h82.158v-14.998zm-228.344 95c0 33.549 17.481 63.093 43.813 80h-84.875l-25.606-25.606v-108.788l25.606-25.606h84.875c-26.332 16.907-43.813 46.451-43.813 80z"></path><path d="m478.283 404.362v-30h-15v45h15.071l-55.864 77.638h-7.314l-55.863-77.638h15.071v-404.362h88.899v344.361h15v-359.361h-118.899v404.362h-29.343l77.449 107.638h22.686l77.452-107.638z"></path><path d="m252.478 241.862h15v15h-15z"></path><path d="m154.603 241.862h15v15h-15z"></path><path d="m433.283 30h15v45h-15z"></path><path d="m433.283 120h15v15h-15z"></path><path d="m433.283 90h15v15h-15z"></path><path d="m433.283 404.362h15v15h-15z"></path></g></svg>